<svg xmlns="http://www.w3.org/2000/svg" width="136" height="40" version="1"><defs><linearGradient id="i" x1="32" x2="15" y1="183" y2="167" gradientTransform="matrix(.8 0 0 -.8 0 162)" gradientUnits="userSpaceOnUse"><stop offset="0" stop-color="#00a0ff"/><stop offset="0" stop-color="#00a1ff"/><stop offset="0" stop-color="#00beff"/><stop offset="1" stop-color="#00d2ff"/><stop offset="1" stop-color="#00dfff"/><stop offset="1" stop-color="#00e3ff"/></linearGradient><linearGradient id="j" x1="44" x2="20" y1="172" y2="172" gradientTransform="matrix(.8 0 0 -.8 0 162)" gradientUnits="userSpaceOnUse"><stop offset="0" stop-color="#ffe000"/><stop offset="0" stop-color="#ffbd00"/><stop offset="1" stop-color="orange"/><stop offset="1" stop-color="#ff9c00"/></linearGradient><linearGradient id="k" x1="35" x2="12" y1="170" y2="147" gradientTransform="matrix(.8 0 0 -.8 0 162)" gradientUnits="userSpaceOnUse"><stop offset="0" stop-color="#ff3a44"/><stop offset="1" stop-color="#c31162"/></linearGradient><linearGradient id="l" x1="17" x2="27" y1="192" y2="182" gradientTransform="matrix(.8 0 0 -.8 0 162)" gradientUnits="userSpaceOnUse"><stop offset="0" stop-color="#32a071"/><stop offset="0" stop-color="#2da771"/><stop offset="0" stop-color="#15cf74"/><stop offset="1" stop-color="#06e775"/><stop offset="1" stop-color="#00f076"/></linearGradient><clipPath id="a"><path d="M0 0h124v48H0V0z"/></clipPath><mask id="m" width="1" height="1" x="0" y="0" maskUnits="userSpaceOnUse"><g clip-path="url(#a)"><path fill-opacity="0" d="M0 0h124v48H0V0z"/></g></mask><clipPath id="n"><path d="M0 0h124v48H0V0z"/></clipPath><clipPath id="b"><path d="M0 0h124v48H0V0z"/></clipPath><pattern id="o" width="124" height="48" patternTransform="matrix(1 0 0 -1 0 48)" patternUnits="userSpaceOnUse"><g clip-path="url(#b)"><path d="M29.625 20.695l-11.613-6.597c-.649-.371-1.231-.344-1.606-.008l-.058-.063.058-.058c.375-.336.957-.36 1.606.011l11.687 6.641-.074.074z"/></g></pattern><clipPath id="c"><path d="M0 0h124v48H0V0z"/></clipPath><mask id="p" width="1" height="1" x="0" y="0" maskUnits="userSpaceOnUse"><g clip-path="url(#c)"><path fill-opacity="0" d="M0 0h124v48H0V0z"/></g></mask><clipPath id="q"><path d="M0 0h124v48H0V0z"/></clipPath><clipPath id="d"><path d="M0 0h124v48H0V0z"/></clipPath><pattern id="r" width="124" height="48" patternTransform="matrix(1 0 0 -1 0 48)" patternUnits="userSpaceOnUse"><g clip-path="url(#d)"><path d="M16.348 14.145c-.235.246-.371.628-.371 1.125v-.118c0-.496.136-.879.371-1.125l.058.063-.058.055z"/></g></pattern><clipPath id="e"><path d="M0 0h124v48H0V0z"/></clipPath><mask id="s" width="1" height="1" x="0" y="0" maskUnits="userSpaceOnUse"><g clip-path="url(#e)"><path fill-opacity="0" d="M0 0h124v48H0V0z"/></g></mask><clipPath id="t"><path d="M0 0h124v48H0V0z"/></clipPath><clipPath id="f"><path d="M0 0h124v48H0V0z"/></clipPath><pattern id="u" width="124" height="48" patternTransform="matrix(1 0 0 -1 0 48)" patternUnits="userSpaceOnUse"><g clip-path="url(#f)"><path d="M33.613 22.961l-3.988-2.266.074-.074 3.914 2.223c.559.316.836.734.836 1.156-.047-.379-.332-.75-.836-1.039z"/></g></pattern><clipPath id="g"><path d="M0 0h124v48H0V0z"/></clipPath><mask id="v" width="1" height="1" x="0" y="0" maskUnits="userSpaceOnUse"><g clip-path="url(#g)"><path fill-opacity="0" d="M0 0h124v48H0V0z"/></g></mask><clipPath id="w"><path d="M0 0h124v48H0V0z"/></clipPath><clipPath id="h"><path d="M0 0h124v48H0V0z"/></clipPath><pattern id="x" width="124" height="48" patternTransform="matrix(1 0 0 -1 0 48)" patternUnits="userSpaceOnUse"><g clip-path="url(#h)"><path fill="#fff" d="M18.012 33.902l15.601-8.863c.508-.289.789-.66.836-1.039 0 .418-.277.836-.836 1.156L18.012 34.02c-1.117.632-2.035.105-2.035-1.176v-.114c0 1.278.918 1.805 2.035 1.172z"/></g></pattern></defs><path d="M130.335 40.093H5.035c-2.754 0-5.011-2.23-5.011-4.954V5.417C.024 2.694 2.28.464 5.036.464h125.299c2.755 0 5.012 2.23 5.012 4.953V35.14c0 2.723-2.257 4.954-5.012 4.954z"/><path fill="#a6a6a6" d="M130.335 1.257c2.32 0 4.209 1.867 4.209 4.16V35.14c0 2.294-1.889 4.16-4.21 4.16H5.037c-2.32 0-4.209-1.866-4.209-4.16V5.417c0-2.293 1.888-4.16 4.209-4.16h125.299m0-.793H5.035C2.282.464.025 2.694.025 5.417V35.14c0 2.723 2.257 4.954 5.012 4.954h125.299c2.755 0 5.012-2.23 5.012-4.954V5.417c0-2.723-2.257-4.953-5.012-4.953z"/><path fill="#fff" d="M47.555 10.056c0 .827-.25 1.49-.744 1.984-.568.586-1.307.88-2.213.88-.866 0-1.605-.3-2.212-.89-.607-.6-.91-1.335-.91-2.215 0-.88.303-1.617.91-2.211.607-.596 1.346-.895 2.212-.895.43 0 .842.088 1.234.251.39.165.71.388.94.663l-.524.522c-.402-.47-.95-.7-1.65-.7-.632 0-1.18.217-1.644.657-.46.44-.69 1.012-.69 1.713 0 .7.23 1.276.69 1.717a2.332 2.332 0 0 0 1.644.658c.67 0 1.234-.223 1.679-.663.293-.29.46-.692.503-1.205h-2.182v-.715h2.912c.035.154.045.304.045.449zm4.62-2.482h-2.736v1.883h2.466v.715H49.44v1.883h2.736v.73h-3.51v-5.94h3.51v.73zm3.26 5.21h-.774v-5.21h-1.678v-.73h4.13v.73h-1.678v5.21zm4.669 0v-5.94h.773v5.94h-.773zm4.2 0h-.769v-5.21h-1.684v-.73h4.137v.73h-1.684v5.21zm9.505-.764c-.593.6-1.327.9-2.203.9-.88 0-1.615-.3-2.208-.9-.591-.6-.886-1.335-.886-2.205 0-.871.295-1.607.886-2.206.593-.6 1.327-.9 2.208-.9.87 0 1.605.3 2.198.905.596.604.89 1.335.89 2.2 0 .871-.294 1.607-.885 2.206zm-3.838-.498c.446.445.988.668 1.635.668.642 0 1.19-.223 1.63-.668.445-.444.67-1.015.67-1.707 0-.693-.225-1.264-.67-1.708a2.213 2.213 0 0 0-1.63-.668c-.647 0-1.19.223-1.635.668-.445.444-.67 1.015-.67 1.708 0 .692.225 1.263.67 1.707zm5.81 1.262v-5.94h.94l2.922 4.62h.033l-.033-1.142V6.845h.773v5.94h-.807l-3.06-4.848h-.034l.034 1.147v3.7h-.768zM68.322 22.014c-2.354 0-4.278 1.771-4.278 4.215 0 2.423 1.924 4.213 4.278 4.213 2.36 0 4.283-1.79 4.283-4.213 0-2.444-1.924-4.215-4.283-4.215zm0 6.768c-1.292 0-2.403-1.054-2.403-2.553 0-1.52 1.111-2.555 2.403-2.555s2.408 1.035 2.408 2.555c0 1.5-1.116 2.553-2.408 2.553zm-9.334-6.768c-2.359 0-4.277 1.771-4.277 4.215 0 2.423 1.918 4.213 4.277 4.213s4.278-1.79 4.278-4.213c0-2.444-1.92-4.215-4.278-4.215zm0 6.768c-1.293 0-2.408-1.054-2.408-2.553 0-1.52 1.115-2.555 2.408-2.555 1.292 0 2.404 1.035 2.404 2.555 0 1.5-1.112 2.553-2.404 2.553zm-11.106-5.476v1.79h4.326c-.126 1.001-.464 1.737-.983 2.25-.632.619-1.615 1.306-3.343 1.306a4.722 4.722 0 0 1-4.748-4.755 4.722 4.722 0 0 1 4.748-4.756c1.44 0 2.487.556 3.26 1.277l1.277-1.262c-1.081-1.02-2.52-1.804-4.537-1.804-3.651 0-6.72 2.936-6.72 6.545s3.069 6.545 6.72 6.545c1.973 0 3.456-.64 4.62-1.838 1.195-1.18 1.567-2.84 1.567-4.18 0-.416-.035-.798-.098-1.118h-6.09zm45.416 1.388c-.352-.942-1.439-2.68-3.651-2.68-2.193 0-4.019 1.708-4.019 4.215 0 2.36 1.807 4.213 4.229 4.213a4.238 4.238 0 0 0 3.554-1.868l-1.454-.957c-.485.7-1.145 1.165-2.1 1.165-.948 0-1.629-.43-2.065-1.276l5.702-2.332-.196-.48zm-5.814 1.403c-.049-1.624 1.277-2.457 2.226-2.457.745 0 1.376.368 1.587.895l-3.813 1.562zm-4.635 4.088h1.875V17.801h-1.875v12.384zm-3.07-7.232h-.062c-.421-.493-1.225-.939-2.242-.939-2.135 0-4.087 1.853-4.087 4.228 0 2.362 1.952 4.2 4.087 4.2 1.017 0 1.82-.45 2.242-.958h.062v.605c0 1.611-.87 2.477-2.275 2.477-1.145 0-1.856-.818-2.15-1.505l-1.63.672c.47 1.117 1.715 2.492 3.78 2.492 2.198 0 4.052-1.278 4.052-4.388v-7.566h-1.777v.682zm-2.144 5.83c-1.291 0-2.373-1.07-2.373-2.54 0-1.486 1.082-2.57 2.373-2.57 1.273 0 2.277 1.084 2.277 2.57 0 1.47-1.004 2.54-2.277 2.54zM102.074 17.8H97.59v12.384h1.87v-4.692h2.614c2.076 0 4.112-1.485 4.112-3.846 0-2.36-2.041-3.846-4.112-3.846zm.049 5.97H99.46v-4.247h2.663a2.161 2.161 0 0 1 2.192 2.123c0 .958-.797 2.123-2.192 2.123zm11.556-1.78c-1.35 0-2.755.59-3.333 1.896l1.659.687c.357-.687 1.014-.91 1.708-.91.97 0 1.953.576 1.968 1.593v.13c-.338-.194-1.062-.48-1.953-.48-1.787 0-3.608.972-3.608 2.787 0 1.66 1.464 2.728 3.11 2.728 1.257 0 1.951-.561 2.387-1.214h.064v.958h1.806v-4.75c0-2.197-1.66-3.425-3.808-3.425zm-.226 6.786c-.611 0-1.463-.3-1.463-1.049 0-.958 1.062-1.326 1.982-1.326.823 0 1.21.18 1.71.416-.147 1.147-1.146 1.96-2.229 1.96zm10.612-6.515l-2.149 5.369h-.064l-2.221-5.369h-2.016l3.337 7.502-1.904 4.175H121l5.144-11.677h-2.08zm-16.852 7.923h1.875V17.801h-1.875v12.384z"/><path fill="url(#i)" d="M16.348 33.969c-.235-.246-.371-.629-.371-1.125V15.152c0-.496.136-.879.371-1.125l.058-.054 9.914 9.91v.234l-9.914 9.91-.058-.058z" transform="matrix(1.25299 0 0 -1.23841 -10 50)"/><path fill="url(#j)" d="M29.621 20.578l-3.301 3.305v.234l3.305 3.305.074-.043 3.914-2.227c1.117-.632 1.117-1.672 0-2.308l-3.914-2.223-.078-.043z" transform="matrix(1.25299 0 0 -1.23841 -10 50)"/><path fill="url(#k)" d="M29.699 20.621L26.32 24l-9.972-9.973c.371-.39.976-.437 1.664-.047l11.687 6.641" transform="matrix(1.25299 0 0 -1.23841 -10 50)"/><path fill="url(#l)" d="M29.699 27.379L18.012 34.02c-.688.386-1.293.339-1.664-.051L26.32 24l3.379 3.379z" transform="matrix(1.25299 0 0 -1.23841 -10 50)"/><g mask="url(#m)" transform="matrix(1.25299 0 0 -1.23841 -10 50)"><g clip-path="url(#n)"><path fill="url(#o)" d="M0 0h124v48H0V0z"/></g></g><g mask="url(#p)" transform="matrix(1.25299 0 0 -1.23841 -10 50)"><g clip-path="url(#q)"><path fill="url(#r)" d="M0 0h124v48H0V0z"/></g></g><g mask="url(#s)" transform="matrix(1.25299 0 0 -1.23841 -10 50)"><g clip-path="url(#t)"><path fill="url(#u)" d="M0 0h124v48H0V0z"/></g></g><g mask="url(#v)" transform="matrix(1.25299 0 0 -1.23841 -10 50)"><g clip-path="url(#w)"><path fill="url(#x)" d="M0 0h124v48H0V0z"/></g></g></svg>